<svg xmlns="http://www.w3.org/2000/svg" viewBox="0 0 64 64" role="img" aria-labelledby="title desc">
  <title id="title">Piero Pasquariello</title>
  <desc id="desc">Monogram favicon with a cyan accent</desc>
  <defs>
    <linearGradient id="bg" x1="0" x2="1" y1="0" y2="1">
      <stop offset="0%" stop-color="#0c172a" />
      <stop offset="100%" stop-color="#14315c" />
    </linearGradient>
    <linearGradient id="accent" x1="0" x2="1" y1="0" y2="1">
      <stop offset="0%" stop-color="#4cdbff" />
      <stop offset="100%" stop-color="#9cf0ff" />
    </linearGradient>
  </defs>
  <rect width="64" height="64" rx="18" fill="url(#bg)" />
  <circle cx="32" cy="32" r="21" fill="none" stroke="url(#accent)" stroke-width="3.5" />
  <path d="M20 19h4.6v26H20V19zm4.6 0h10.8c4.7 0 8.3 3.4 8.3 8.1 0 4.7-3.6 8.1-8.3 8.1h-6.4V45h-4.4V19zm4.4 11.8h6.6c2.4 0 4.1-1.6 4.1-3.7 0-2.2-1.7-3.8-4.1-3.8H29v7.5z" fill="#f7fbff"/>
  <path d="M36.7 19h4.6v26h-4.6V19zm4.6 0h10.8c4.7 0 8.3 3.4 8.3 8.1 0 4.7-3.6 8.1-8.3 8.1H41.3V45h-4.4V19zm4.4 11.8h6.6c2.4 0 4.1-1.6 4.1-3.7 0-2.2-1.7-3.8-4.1-3.8H45.7v7.5z" fill="#f7fbff" opacity=".95"/>
</svg>
